<?xml version="1.0" encoding="UTF-8"?>
<svg width="329px" height="73px" viewBox="0 0 329 73" version="1.1" xmlns="http://www.w3.org/2000/svg" xmlns:xlink="http://www.w3.org/1999/xlink">
    <!-- Generator: Sketch 46.1 (44463) - http://www.bohemiancoding.com/sketch -->
    <title>InPower Logo</title>
    <desc>Created with Sketch.</desc>
    <defs>
        <polygon id="path-1" points="330.5791 0 0 0 0 39.4999 0 78.9998 330.5791 78.9998"></polygon>
    </defs>
    <g id="Homepage" stroke="none" stroke-width="1" fill="none" fill-rule="evenodd">
        <g id="Desktop-HD" transform="translate(-134.000000, -21.000000)">
            <g id="Header" transform="translate(134.000000, -1.000000)">
                <g id="InPower-Logo" transform="translate(0.000000, 21.000000)">
                    <text id="Step-Into-Your-Power" font-family="Avenir-Book, Avenir" font-size="17" font-weight="normal" letter-spacing="0.055" fill="#F8B817">
                        <tspan x="83.7407" y="56.4508457">Step Into </tspan>
                        <tspan x="158.3427" y="56.4508457" letter-spacing="-1.509">Y</tspan>
                        <tspan x="165.0277" y="56.4508457">our Power</tspan>
                    </text>
                    <g id="Group-38" transform="translate(0.000000, 0.829100)">
                        <mask id="mask-2" fill="white">
                            <use xlink:href="#path-1"></use>
                        </mask>
                        <g id="Clip-1"></g>
                        <text id="InPower-Wellness" mask="url(#mask-2)" font-family="Alice-Regular, Alice" font-size="32" font-weight="normal" letter-spacing="-0.16" fill="#EE7922">
                            <tspan x="82.5791" y="34.8159164">I</tspan>
                            <tspan x="93.9071" y="34.8159164">n</tspan>
                            <tspan x="113.0751" y="34.8159164" letter-spacing="-0.64">P</tspan>
                            <tspan x="131.1231" y="34.8159164" letter-spacing="-0.8">o</tspan>
                            <tspan x="147.0591" y="34.8159164" letter-spacing="-0.96">w</tspan>
                            <tspan x="170.6751" y="34.8159164">er </tspan>
                            <tspan x="207.4751" y="34.8159164" letter-spacing="-1.92">W</tspan>
                            <tspan x="233.5231" y="34.8159164" letter-spacing="-0.576">e</tspan>
                            <tspan x="248.4351" y="34.8159164">l</tspan>
                            <tspan x="257.5871" y="34.8159164">l</tspan>
                            <tspan x="266.4191" y="34.8159164" letter-spacing="-0.128">n</tspan>
                            <tspan x="285.3311" y="34.8159164">ess</tspan>
                        </text>
                        <g id="Sun" mask="url(#mask-2)">
                            <path d="M34.9415,26.2928 L33.6855,23.2998 C32.1445,19.6408 33.1645,15.6708 35.9885,13.2378 C36.2285,14.2658 36.3585,15.3328 36.2165,16.4708 L34.9935,26.2988 L34.9415,26.2928 Z" id="Fill-2" fill="#EE7922"></path>
                            <path d="M26.7398,32.6785 L23.4808,32.2735 C19.5498,31.7835 16.6518,28.9015 15.8998,25.2365 C16.9148,25.5195 17.9048,26.0115 18.8228,26.6505 L26.7398,32.6785 Z" id="Fill-3" fill="#EE7922"></path>
                            <path d="M37.836,46.9295 L39.092,49.9225 C40.633,53.5815 39.613,57.5515 36.789,59.9845 C36.549,58.9565 36.419,57.8895 36.561,56.7515 L37.784,46.9235 L37.836,46.9295 Z" id="Fill-4" fill="#EE7922"></path>
                            <path d="M49.3028,40.8973 C53.2348,41.3863 56.1838,44.2753 56.8848,47.9343 C55.8688,47.6513 54.8798,47.1603 53.9608,46.5203 L46.0378,40.5433 L49.2968,40.9493 L49.3028,40.8973 Z" id="Fill-5" fill="#EE7922"></path>
                            <path d="M46.7071,35.1639 L49.7001,33.9079 C53.3591,32.3669 57.3291,33.3869 59.7621,36.2109 C58.7341,36.4509 57.6671,36.5809 56.5291,36.4389 L46.7071,35.1639 Z" id="Fill-6" fill="#EE7922"></path>
                            <path d="M53.7955,26.328 L44.6485,30.181 L46.5995,27.586 C48.9905,24.417 52.9595,23.335 56.4905,24.51 C55.7145,25.254 54.7975,25.875 53.7955,26.328" id="Fill-7" fill="#EE7922"></path>
                            <path d="M46.3042,18.9871 L40.3272,26.9101 L40.7332,23.6521 C41.2222,19.7201 44.1042,16.8221 47.7702,16.0701 C47.4802,17.1371 46.9892,18.1271 46.3042,18.9871" id="Fill-8" fill="#EE7922"></path>
                            <path d="M26.1055,19.2044 L29.9575,28.3514 L27.3635,26.4004 C24.2465,24.0164 23.1125,20.0404 24.3385,16.5164 C25.0835,17.2914 25.7045,18.2094 26.1055,19.2044" id="Fill-9" fill="#EE7922"></path>
                            <path d="M16.1963,36.7772 L26.0763,38.0062 L23.0833,39.2622 C19.4253,40.8032 15.4543,39.7842 13.0223,36.9602 C13.9913,36.7652 15.1103,36.6422 16.1963,36.7772" id="Fill-10" fill="#EE7922"></path>
                            <path d="M19.0401,46.8494 L28.1871,42.9964 L26.2361,45.5904 C23.8451,48.7604 19.8761,49.8424 16.3451,48.6674 C17.0691,47.9164 17.9861,47.2954 19.0401,46.8494" id="Fill-11" fill="#EE7922"></path>
                            <path d="M26.4795,54.1834 L32.4565,46.2604 L32.0505,49.5194 C31.5615,53.4504 28.6795,56.3484 25.0135,57.1004 C25.3555,56.0394 25.7885,55.0954 26.4795,54.1834" id="Fill-12" fill="#EE7922"></path>
                            <path d="M46.6783,53.9666 L42.8263,44.8196 L45.4203,46.7706 C48.5893,49.1606 49.6713,53.1306 48.4963,56.6606 C47.7003,55.8796 47.1253,55.0206 46.6783,53.9666" id="Fill-13" fill="#EE7922"></path>
                            <path d="M41.9712,66.0399 C40.2772,65.3039 38.8472,64.1279 37.9342,62.5969 C42.1102,59.4379 43.7362,53.9679 41.6322,48.9259 L44.2282,55.0799 C44.9142,56.7409 45.9562,58.0789 47.2372,59.1839 C47.2302,59.2349 47.1722,59.2809 47.1662,59.3329 L41.9712,66.0399 Z" id="Fill-14" fill="#F8B817"></path>
                            <path d="M26.5176,64.8524 C25.3856,63.3984 24.8156,61.6464 24.7246,59.8484 C29.8956,59.2314 34.0706,55.2334 34.7466,49.8024 L33.9226,56.4234 C33.7046,58.1824 33.9116,59.8894 34.4496,61.4794 C34.3916,61.5244 34.3396,61.5184 34.3326,61.5704 L26.5176,64.8524 Z" id="Fill-15" fill="#F8B817"></path>
                            <path d="M22.1104,57.2117 L13.6784,56.1627 C13.4324,54.3457 13.8184,52.5027 14.6454,50.9247 C19.4314,52.9907 25.0624,51.6437 28.3384,47.2717 L24.3134,52.6007 C23.2404,54.0427 22.5754,55.5887 22.2144,57.2257 C22.2204,57.1737 22.1624,57.2187 22.1104,57.2117" id="Fill-16" fill="#F8B817"></path>
                            <path d="M13.732,47.2918 L6.96,42.1938 C7.696,40.4998 8.872,39.0698 10.404,38.1568 C13.51,42.3258 19.032,43.9588 24.074,41.8548 L17.92,44.4508 C16.311,45.1438 14.921,46.1788 13.816,47.4598 C13.777,47.3498 13.784,47.2978 13.732,47.2918" id="Fill-17" fill="#F8B817"></path>
                            <path d="M10.5889,33.2948 L7.3069,25.4798 C8.7609,24.3478 10.5129,23.7778 12.3099,23.6868 C12.9269,28.8578 16.9249,33.0328 22.3569,33.7088 L15.6839,32.8788 C13.9249,32.6598 12.2179,32.8678 10.6279,33.4048 C10.6339,33.3538 10.5829,33.3468 10.5889,33.2948" id="Fill-18" fill="#F8B817"></path>
                            <path d="M30.8062,7.1824 C32.5002,7.9184 33.9302,9.0944 34.8432,10.6264 C30.6672,13.7844 29.0352,19.3064 31.1452,24.2964 L28.5492,18.1424 C27.8562,16.5334 26.8212,15.1434 25.5402,14.0384 C25.5472,13.9874 25.6052,13.9414 25.6112,13.8904 L30.8062,7.1824 Z" id="Fill-19" fill="#F8B817"></path>
                            <path d="M46.2662,8.3187 C47.3982,9.7727 47.9682,11.5247 48.0602,13.3217 C42.8882,13.9397 38.7132,17.9377 38.0372,23.3687 L38.8612,16.7477 C39.0802,14.9887 38.8722,13.2817 38.3342,11.6917 C38.3922,11.6467 38.4442,11.6527 38.4512,11.6007 L46.2662,8.3187 Z" id="Fill-20" fill="#F8B817"></path>
                            <path d="M50.7188,16.0169 L59.0988,17.0599 C59.3448,18.8769 58.9588,20.7199 58.1318,22.2979 C53.3458,20.2309 47.7148,21.5789 44.4398,25.9519 L48.4648,20.6219 C49.5308,19.2309 50.2018,17.6339 50.5638,15.9979 L50.7188,16.0169 Z" id="Fill-21" fill="#F8B817"></path>
                            <path d="M59.0972,25.9373 L65.8692,31.0353 C65.1332,32.7293 63.9572,34.1593 62.4252,35.0713 C59.2672,30.8963 53.7452,29.2633 48.7552,31.3743 L54.9092,28.7783 C56.5182,28.0853 57.9082,27.0503 59.0132,25.7693 C59.0002,25.8733 59.0522,25.8793 59.0972,25.9373" id="Fill-22" fill="#F8B817"></path>
                            <path d="M25.729,28.5609 L20.399,24.5359 C19.008,23.4689 17.411,22.7979 15.775,22.4359 C15.781,22.3849 15.788,22.3329 15.794,22.2809 L16.837,13.9009 C18.654,13.6549 20.497,14.0409 22.075,14.8689 C20.061,19.6609 21.415,25.2399 25.729,28.5609" id="Fill-23" fill="#F8B817"></path>
                            <path d="M47.0484,44.6619 L52.3784,48.6869 C53.7694,49.7539 55.3664,50.4249 57.0024,50.7859 C56.9964,50.8379 56.9894,50.8899 56.9834,50.9409 L55.9404,59.3209 C54.1234,59.5679 52.2804,59.1819 50.7024,58.3539 C52.7684,53.5679 51.4214,47.9369 47.0484,44.6619" id="Fill-24" fill="#F8B817"></path>
                            <path d="M49.6314,38.2596 L56.2524,39.0836 C58.0114,39.3026 59.7184,39.0946 61.3084,38.5576 C61.3024,38.6096 61.3474,38.6666 61.3994,38.6736 L64.6814,46.4886 C63.2274,47.6206 61.4754,48.1916 59.6774,48.2816 C59.0614,43.1106 55.0634,38.9356 49.6314,38.2596" id="Fill-25" fill="#F8B817"></path>
                            <path d="M72.8291,36.3143 L66.7301,44.3793 L63.8881,37.6693 C63.8421,37.6123 63.8041,37.5013 63.7581,37.4443 C65.5811,36.3043 67.0411,34.7013 68.0231,32.7213 L72.8291,36.3143 Z" id="Fill-26" fill="#FFDC48"></path>
                            <path d="M67.7891,18.1414 L66.5401,28.1774 L60.7311,23.7774 C60.6861,23.7184 60.5831,23.7054 60.5381,23.6474 C61.5581,21.7784 62.0361,19.6314 61.8921,17.4074 L67.7891,18.1414 Z" id="Fill-27" fill="#FFDC48"></path>
                            <path d="M58.2955,14.2283 L51.0535,13.3273 C50.9505,13.3143 50.8985,13.3083 50.7955,13.2943 C50.7425,11.1863 50.0625,9.0533 48.8195,7.2183 L54.3655,4.8613 L58.2955,14.2283 Z" id="Fill-28" fill="#FFDC48"></path>
                            <path d="M36.0914,0.1707 L44.1574,6.2707 L37.4474,9.1117 C37.3894,9.1577 37.2794,9.1957 37.2214,9.2417 C36.0824,7.4187 34.4784,5.9587 32.4994,4.9767 L36.0914,0.1707 Z" id="Fill-29" fill="#FFDC48"></path>
                            <path d="M17.919,5.2108 L27.955,6.4598 L23.554,12.2688 C23.496,12.3138 23.483,12.4168 23.425,12.4618 C21.556,11.4418 19.409,10.9648 17.185,11.1078 L17.919,5.2108 Z" id="Fill-30" fill="#FFDC48"></path>
                            <path d="M14.0577,14.7108 L13.1567,21.9528 C13.1427,22.0568 13.1367,22.1078 13.1237,22.2118 C11.0097,22.3158 8.8827,22.9448 7.0477,24.1868 L4.6907,18.6408 L14.0577,14.7108 Z" id="Fill-31" fill="#FFDC48"></path>
                            <path d="M0,36.9149 L6.099,28.8489 L8.941,35.5599 C8.986,35.6169 9.025,35.7279 9.071,35.7849 C7.248,36.9239 5.788,38.5279 4.806,40.5079 L0,36.9149 Z" id="Fill-32" fill="#FFDC48"></path>
                            <path d="M4.9883,55.0809 L6.2373,45.0459 L12.0463,49.4449 C12.0913,49.5039 12.1943,49.5169 12.2393,49.5749 C11.2193,51.4439 10.7413,53.5909 10.8853,55.8149 L4.9883,55.0809 Z" id="Fill-33" fill="#FFDC48"></path>
                            <path d="M14.5401,58.9491 L21.7821,59.8501 C21.8861,59.8631 21.9371,59.8701 22.0401,59.8831 C22.1391,62.0491 22.7731,64.1241 24.0161,65.9591 L18.4761,68.2631 L14.5401,58.9491 Z" id="Fill-34" fill="#FFDC48"></path>
                            <path d="M36.6924,72.9998 L28.6264,66.8998 L35.3364,64.0588 C35.3944,64.0138 35.5044,63.9748 35.5624,63.9298 C36.7014,65.7518 38.3054,67.2128 40.2844,68.1938 L36.6924,72.9998 Z" id="Fill-35" fill="#FFDC48"></path>
                            <path d="M54.8648,67.9598 L44.8298,66.7108 L49.2298,60.9018 C49.2878,60.8568 49.3008,60.7538 49.3588,60.7088 C51.2278,61.7298 53.3748,62.2068 55.5988,62.0638 L54.8648,67.9598 Z" id="Fill-36" fill="#FFDC48"></path>
                            <path d="M58.7779,58.4666 L59.6789,51.2246 C59.6929,51.1206 59.6989,51.0696 59.7119,50.9656 C61.8709,50.9196 63.9529,50.2336 65.7879,48.9896 L68.0929,54.5296 L58.7779,58.4666 Z" id="Fill-37" fill="#FFDC48"></path>
                        </g>
                    </g>
                </g>
            </g>
        </g>
    </g>
</svg>